<?xml version="1.0" encoding="UTF-8"?>
<svg id="Layer_2" data-name="Layer 2" xmlns="http://www.w3.org/2000/svg" viewBox="0 0 91.34 49.51">
  <defs>
    <style>
      .cls-1 {
        fill: #fff;
      }

      .cls-2 {
        fill: #14143e;
      }

      .cls-3 {
        fill: #e22850;
      }
    </style>
  </defs>
  <g id="Layer_1-2" data-name="Layer 1">
    <g id="Logo">
      <g>
        <g id="Purple">
          <path class="cls-2" d="M6.7,20.25c-.77,1.04-3.34,1.96-4.62,1.83-1.11-.11-2.44-1.21-1.99-2.41.28-.75.91-.97,1.36-1.51.29-.35.43-.79.68-1.16.11-.15.76-.9.89-.95.04-.02.08-.04.13-.03.15.04,0,.36-.03.45-.1.25-.36.46-.32.74.27.29.85-1.31.93-1.42.16-.25.54-.57.86-.52.11.11-.38.92-.07,1.02s.43-.26.65-.31c.25-.06.53.02.82-.05.61-.15,1.45-1.14,1.96-1.56.54-.44,1.84-1.33,2.53-1.38.75-.05-.24.98-.09,1.13h.18c2.7-1.3,5.6-2.27,8.21-3.7,2.47-1.36,3.06-2.68,4.66-4.81.95-1.26,3.98-2.57,5.54-2.64.07,0,.17-.01.22.05.09.12-.15.41.05.38.16-.02.48-.29.66-.37,1.5-.72,2.21-.43,3.73-.55.81-.06,1.59-.62,2.32-.93,1.12-.49,2.43-.97,3.62-1.25.24-.06,1.87-.37,1.94-.31.16.15-.56.45-.67.5-.53.25-1.14.4-1.64.68-.64.36-.97.86-1.72,1.15-1.32.5-2.68.67-3.94,1.47-.16.1-.65.49-.18.47.68-.03,1.79-.4,2.51-.52.56-.1,1.22-.22,1.78-.28.97-.11,1.92.02,2.88-.26.76-.22,1.24-.51,2.1-.55,1.27-.07,2.45.62,3.79.54.77-.05,1.35-.51,1.65.57.23.86,0,2.02-.46,2.78-.43.71-1.27,1.17-1.58,1.94-.2.51-.17,1.02.5.99,2.36-.11,4.27-.94,6.31.78.36.3.96,1.12,1.39,1.21.77.16,1.52-.21,2.26-.26.77-.06,1.75,0,2.44.38.74.42,1.12,1.42,2.1,1.29.42-.06.85-.36,1.26-.41,1.37-.17,1.78,1.35,3.19,1.5,2.41.25,2.34-1.55,3.39-3.15s1.58-.67,2.77-1.34c.22-.12.3-.3.62-.36.92-.16,2.42.93,2.89,1.68,1.1,1.77.58,4.05-.27,5.81-.19.39-.77,1.16-.86,1.47-.12.41.15.3.39.18,1.17-.58,3.25-2.91,4.08-3.98,1-1.28,1.67-2.57,2.48-3.96.45-.77,1.02-1.91,1.93-.82,1.38,1.65.82,4.36-.14,6.07-.18.33-1.05,1.46-1.07,1.69,0,.07-.01.13.02.19.16.22,1.43-.33,1.71-.41,3.08-.86,6.1.13,7.46,3.15,1.16,2.58.02,3.24-1.72,4.86-.45.42-1.28.92-1.4,1.58-.15.89.82,1.67-.36,2.24s-2.56.12-2.99-1.15c-.07-.21-.2-1.15-.25-1.18-.03-.02-.24-.03-.27.02-.26.38-.04,1.77.1,2.23.33,1.09.97,1.45,1.4,2.34,1.19,2.51-.32,7.92-2.58,9.55-.67.49-1.19.43-1.81.73-.35.17-.17.25.11.27.42.04,1.67-.21,1.53.5-.11.54-1.32,1.56-1.78,1.9-.32.24-1.14.47-.66.95,1.07.35,2.35.63,3.32,1.22.54.33.86.61.04.86-1.1.33-2.22.11-3.32.2-.85.07-.1.69.13,1.07.73,1.22.07,1.14-.97.92-.32-.07-.66-.16-.96-.28-.83-.33-2.82-1.65-3.55-1.65-.76,0-1.44.74-2.27.81-1.58.15-3.08-.66-3.22-2.35-.19-2.15,1.33-2.8,2.66-4.06,1.04-.99,2.66-2.84,1.69-4.34-.81-1.24-3.12-.49-4.29-.15-3.48.99-6.75,2.6-10.26,3.49-2.1.53-4.25.81-6.37,1.21-.28.12.12.38.13.4.03.29-.67.83-.91.98-.49.32-.96.51-1.53.63-.21.05-1.04.09-1.08.28-.05.28.93.38.4.67-.65.36-2.66.73-3.42.7-1.12-.04-1.83-.67-2.87-.76-1.66-.14-3.38.36-4.65,1.39-1.36,1.11-2.45,2.11-4.15,2.75-3.47,1.31-7.31,0-9.33-3.06-2.01-3.03-2.56-8.06-2.08-11.59.58-4.25,2.83-7.96,4.52-11.83.08-.32,0-.62-.25-.84-.16-.14-.56-.22-.53-.47.04-.36,1.01-.92,1.29-1.2,1.1-1.09.4-2.17,1.96-3.23.22-.15.91-.47,1.01-.62.18-.27-.33-.47-.31-.74.03-.29.84-.72,1.09-.86,1.16-.65,2.36-1.16,3.42-1.99.24-.19.47-.46.71-.65.48-.38,1.09-.65,1.49-1.11,1.44-1.69-.3-2.78-1.92-2.95-3.26-.34-6.26.75-9.14,2.12-.68.32-2.7,1.29-3.08,1.85s.73.24.66.71c-.03.18-.75.65-.94.74-.34.17-.72.22-1.05.36-.38.16-.68.5-1.08.66-.12.23.13.17.28.26.54.32-.39.95-.63,1.18-.02.11.17.11.19.24.05.22-.61.81-.8.95-1.34.99-2.75.91-4.29,1.18-.51.09-.68.19-1.05.46-.78.57-1.52,1.19-2.3,1.76-.46.34-1.5.91-1.83,1.25-.24.25.01.25.1.48-.03.16-.79.43-.96.45-.38.06-1.32-.16-1.15.5-.08-.04-.42.02-.37-.23.02-.1.67-.44.79-.46.23-.04.49.09.74.04.02,0,.29-.15.3-.16.1-.12-.15-.11-.19-.16-.14-.17.29-.24.34-.28.04-.04.06-.17.15-.26.56-.56,1.66-1.18,2.33-1.73.5-.41,2.08-2.01,2.53-2.13.28-.07.82-.01.88-.36-.23.11-.67.32-.54-.11.46-.28.82-.79,1.25-1.08.41-.28.88-.29,1.33-.49.14.01.34.22.45.21.07,0,.33-.19.36-.26.18,0,.32-.19.46-.21.22-.04.51.03.74-.01.13-.03.4-.16.28-.31-.5.02-.93.13-1.43.16-.3.02-.78-.11-.87.27-.17,0-.64.44-.62.05l2.09-1.75c.14-.17.56-.19.68-.3.11-.1.06-.29.19-.41.57-.54,2.05-1.46,2.76-1.89,2.8-1.68,7.2-3.68,10.47-3.82,1.39-.06,3.72.07,4.63,1.27.79,1.05-.2,2.33-.92,3.14-.38.43-1.81,1.49-2.33,1.78-.65.36-2.08.78-2.48,1.39-.29.02-.61.5-.53.77.07.24.35.21.04.63-.1.08-.13.11-.22.22-.65.38-1.36.81-1.71,1.51-.19.39-.29.94-.63,1.27-.41.4-1.16.76-1.41,1.3-.31.66.16.41.37.57.22.17-.02.77-.09.99-.1.29-.2.73-.34.98-2.89,5.09-4.44,10.27-3.6,16.29.47,3.37,1.76,6.83,5.1,8.27,4.1,1.77,7.54-1.25,10.88-3.1.46-.25,1.77-1.02,2.19-1.12.24-.06.22.17.37.36.42.53.84.36,1.23.6.16.1.22.43.58.49.03,0,.07,0,.11,0,.4.03.99.06,1.38.06.3,0,.63-.19.95-.17.02-.14,0-.09-.08-.11-.14-.04-.56-.11-.71-.11-.22,0-.96.19-1.07.16-.17-.04-.07-.29-.25-.26,0-.02,0-.04,0-.05,0-.03,0-.1,0-.11-.01-.01-.08,0-.11,0-.02,0-.04,0-.05,0-.2-.52-.9-.11-1.3-.25-.28-.09-.52-.57-.43-.85.07-.2,1.41-.52,1.66-.68.31-.05.69.52.93.72.3.25.84.59,1.23.42.06-.03.14-.06.07-.12-.03-.03-.56-.11-.78-.27-.13-.09-.81-.78-.79-.89l.09-.07c.55-.12,1.09-.3,1.64-.42,2.25-.5,4.57-.55,6.84-.9,5.08-.77,9.65-2.59,14.5-4.12.97-.31,2.52-.86,3.49-.95,3.12-.29,3.16,3.04,1.56,4.92-1.16,1.36-5.36,3.77-3.38,5.87,1.32,1.4,3.8.37,5.08-.6.07-.05.36-.31.27-.4-.8.29-1.59.69-2.46.76-.65.05-2.44.01-2.22-1.03.17-.82,2.07-2.01,2.74-2.62,1.48-1.34,2.93-3.19,2.92-5.28.09-.02.11.02.15.09.08.17.11.51.22.75.54,1.23,1.99,2.43,3.39,2.29,1.97-.2,3.55-3.43,3.96-5.13.91-3.77-1.56-7.13-5.17-8.06-.8-.2-1.73-.25-2.49-.48-.06-.02-.15-.04-.17-.1l.03-.13c1.51-2.3,3.39-4.03,5.94-5.1,1.19-.5,3.62-1.22,4.88-1.07,1.11.13-.12.8-.45,1.1-.75.68-2.2,2.13-2.32,3.14-.07.61.48,2.52.97,2.92.67.55,1.06.06,1.14-.65.06-.53-.08-.69.28-1.18.82-1.13,2.16-1.84,2.97-2.88,1.07-1.37-.68-3.69-1.76-4.57-2.35-1.91-7.13.09-9.41,1.47-1.53.93-3.09,2.58-4.03,4.09-.75,1.19-.64,1.71-.31,3.05.19.76.65,2.36,1.31,2.8.98.67,3.01.8,4.18,1.07,2.4.56,3.8,1.86,2.51,4.38-.92,1.8-2.37,3.03-4.47,2.07-.33-.15-.76-.4-.9-.75.31.07.54.32.85.42,1.24.42,3.16-.53,3.26-1.92.03-.36-.19-.88-.61-.66-.71.37-.65,1.85-1.78,1.5-1.96-.61-4.15-4.23-5.1-5.99-.68-1.25-1.89-3.59-2.17-4.92-.05-.26-.13-.62,0-.86,3.56-2.79,8.43-4.93,10.53-9.17.61-1.23.77-1.97.52-3.35-.05-.28-.3-1.21-.72-.96-.3.18-.76,1.39-.95,1.75-1.55,2.96-5.64,6.25-8.45,8.11-.13.09-.81.57-.9.47.05-.41.2-.81.34-1.2.67-1.94,1.66-3.83,2.14-5.82.13-.53.3-1.22.16-1.76s-1.11-1.89-1.64-2.09c-.82-.31-.54,1.2-.56,1.59-.11,1.75-1.43,4.35-2.06,6.06-.96,2.59-1.84,5.36-2.58,8.03-.59,2.12-1.19,4.32-1.53,6.48.08,1.02.18,2.13,1.01,2.84.11.09.31.1.3.27l-3.25,1.24c-.08-.08.32-.5.39-.61.12-.2.25-.5.31-.72.58-1.95.74-4.36,1.22-6.41.53-2.26,1.23-4.63,1.9-6.87.82-2.76,1.75-6,3.01-8.57.18-.37.76-1.21.83-1.5.18-.77-.98-1.48-1.63-1.41-.45.05-.91,1.11-1.1,1.5-.72,1.44-1.33,3.1-1.87,4.62-1.94,5.45-3.47,11.19-3.87,16.99-.11.13-.15-.31-.16-.36-.37-2.39-.2-4.99-.17-7.4.03-2.85.01-5.71.21-8.55.09-1.23.96-4.59-1.31-4.23-.83.13-1.13.8-1.57,1.36-.05.06-.05.11-.15.09.18-.6-.4-1.57-.92-1.87s-1.78-.62-2.36-.67c-.51-.04-2.18-.12-2.29.56-.04.27.16,1.24.25,1.53.08.25.4.51.65.54.23.02.55-.16.49.29-1.35,3.55-2.41,7.2-3.58,10.82-.72,2.25-1.76,4.43-1.99,6.81-.26,0-.34-.31-.62-.33-.18-.02-.59.13-.77.21s-.9.52-.97.66c-.09.19.19.43.25.57.03.07-.01.1-.08.08-.65-.61-1.34-1.19-1.98-1.81-.79-.76-2.43-2.28-2.43-3.41,0-.96,1.19-2.02,1.84-2.65,2.59-2.51,7.71-6.41,8.7-9.86.75-2.6-.77-4.57-3.19-5.38-3.82-1.28-8.68,1.98-11.41,4.42s-5.55,5.69-7.37,9.08c-1.53,2.85-2.38,5.45.04,8.15.27.31.8.91,1.25.65.59-.34-.09-1.5-.14-2.03-.13-1.37.55-3.61,1-4.95.94-2.83,3.31-5.48,5.55-7.39.39-.34,1.05-.92,1.47-1.19.08-.05.16-.1.27-.08-1.64,3.98-3.15,8.06-3.88,12.33-.49,2.87-.72,6.63.31,9.4.41,1.1.83,1.84,2.09,1.92.06,0,.18-.03.13.08-.07.16-.67.3-.86.38-.29.12-1.52.72-1.71.73-.14,0-.22-.11-.36-.1-.39.03-1.02.43-1.48.43-1.24,0-3.4-1.29-3.63-2.6-.11-.66.16-1.58-.52-2.03-.34-.23-.37-.08-.67-.09-.79-.03-1.97-1.52-2.15-2.24-.34-1.33.39-2.79.49-4.12.05-.72-.11-2.76-.47-3.37-.12-.21-.33-.24-.28-.53.48-1.15,1-2.28,1.63-3.35,3.57-6.1,9.56-9.69,13.85-15.16.36-.46.71-1.16,1.06-1.54.38-.42,1-.75,1.38-1.22.46-.57,1.1-2.05.3-2.57-.33-.21-.95-.07-1.35-.11-.32-.04-.61-.18-.95-.21,0-.03.02-.09,0-.1-.02-.02-.19,0-.27-.03-.61-.2-1.18-.37-1.84-.19-.03,0-.16,0-.16,0l-.11.05c-.35.04-.73.29-1.03.38-.74.21-2.53.13-3.44.22-1.36.14-2.93.44-4.26.77-1.19.3-2.31.8-3.45,1.23-.1-.1.69-.66.76-.73,1.94-1.77,3.37-2.19,5.85-2.95.18-.06.41-.13.6-.16.16-.03.09-.03.16-.05.02,0,.04,0,.05,0,.16-.07.4-.12.43-.32.03-.02.04-.05.05-.05.02-.01.1,0,.16-.03.07-.04.59-.43.49-.51-.21,0-.47.09-.66.16-.06.02-.03.1-.04.11-.07.04-1.08.32-1.35.43-2.26.9-4.24,1.58-6.22,3.06-.45.34-.86.76-1.33,1.05-.08,0-.13-.09-.17-.1-.12-.02-.49.71-.65.8-.58.21-1.13.52-1.7.71,0-.06,0-.12.01-.18.04-.11.35-.68.43-.81.37-.63.74-.89,1.32-1.27.25-.17.55-.27.78-.47.02-.11-.05-.09-.13-.08-.49.09-1.47.68-1.82,1.05-.45.48-1.16,1.89-1.6,2.19s-1.65.72-2.21.98c-.5.23-1.01.46-1.47.75-.08.01-.09,0-.08-.08.04-.27,1.07-1.21,1.33-1.43.09-.08.22-.09.29-.2.19-.29-.25-.2-.21-.37.51-.51.9-1.19,1.38-1.71.09-.1.66-.63.73-.65.08-.03.26.02.39-.01.15-.03.25-.16.36-.2.32-.12.78-.09,1.17-.22.13-.05.99-.43.78-.65-.42.11-.83.43-1.27.43-.28,0-.78-.2-1,.05-.35.04-.34.16-.54.32-.08.07-.23.1-.3.22l-2.11,2.49v.48c-.74.48-1.19,1.23-1.78,1.85-3.78,1.71-7.39,3.82-11.32,5.18-.63.22-1.27.39-1.9.59-.05.02-.36.2-.3.03s1.01-.84,1.23-.99c.33-.23,1.06-.6,1.29-.82.05-.05.1-.07.08-.16-.13-.11-.97.37-1.13.46-1.37.84-2.21,2.17-3.79,2.7-.51.17-.52.17-.99.41s-.6.25-1.08.38c-.18.05-.51.39-.79.45-.06.01-.11.03-.17.02-.06-.18.12-.36.11-.51-.01-.14-.27.19-.29.25-.08.16-.09.36-.22.53-.2.27-.65.55-.89.86-.8,1.04-.44,1.9.67,2.46,1.63.82,3.49-.36,4.86-1.22.29-.18.26-.3.59-.31-.09.03-.11.1-.16.16-.02.02-.04.03-.05.05ZM31.55,2.82c-.75.09-1.71.39-1.89,1.24.4-.09.79-.24,1.13-.46.11-.07.9-.65.76-.78ZM21.91,13.05c-.18-.09-.66-.1-.59.18s.65.15.59-.18ZM4.27,15.65c-.34.08-.42.48-.55.72-.06.1-.6.96-.12.64.12-.08.56-.93.62-1.11.03-.08.08-.14.05-.25ZM17.42,17.05s-.14-.18-.16-.19c-.26-.13-.59.12-.76.3-.02.02-.14.07-.11.11.03,0,.09-.01.11,0,.24.14.25.39.64.23.08-.03.15-.14.23-.18.5-.22.82-.18,1.31-.29.14-.03.63-.17.69-.28.02-.13-.04-.07-.12-.07-.21.02-.54.08-.75.12-.35.08-.74.3-1.08.25ZM81.41,42.43l-5.5,1.68s-.08-.02-.11-.05c-.12-.1-.24-1.32-.29-1.58h-.16c.1.28-.15,2.03-.09,2.11.05.07.13.05.21.04.6-.1,1.48-.49,2.1-.67.28-.08.27.03.17.28-.26.25-.55.51-.79.78-.08.09-.32.36-.3.46.04.14,2.28.52,2.33.65.02.06,0,.12-.05.16-.24.08-1.5.01-1.63.1-.25.18.53.74.33.95-.06.06-.87-.15-1.03-.11l.03.11,2.84,1.13c.03-.23-.22-.3-.35-.43-.21-.2-.37-.42-.57-.63-.14-.14-.59-.49-.63-.62-.02-.07-.04-.09.03-.14l4.71-.03c.02-.11,0-.09-.07-.12-.33-.15-.78-.13-1.12-.23l-3.96-.93c-.01-.13.04-.22.14-.29,1.13-.8,2.37-1.54,3.49-2.36.1-.07.28-.16.28-.29ZM52.12,42.54c-.15-.13-1.11.52-1.28.64-.04.03-.19.11-.12.17.04.03.82-.35.96-.37.06-.04.54-.36.45-.44ZM50.33,43.3s-.59-.3-.64-.31c-.39-.09-.9.03-1.25.22l-.65.46c.29.11.6-.21.83-.2.26.01.73.31.98.3.17,0,.89-.21.73-.48Z"/>
          <path class="cls-2" d="M59.97,14.94c-.41.91-.87,1.8-1.23,2.75-1.24,3.27-1.95,7.15-2.54,10.61-.29,1.69-1.29,7.09-.29,8.37.07.09.34.24.32.32-.03.12-.42.09-.52.08-1.56-.06-3.09-.42-4.5-1.07l-.34-.28c.61.13,1.23.45,1.84.14.28-.14.62-.51.51-.84-.1-.32-.44-.18-.72-.26-.13-.04-.51-.27-.61-.37-.21-.22-.02-.31.05-.53,1.83-5.93,4.1-11.9,5.66-17.88.07-.28.17-1.24.35-1.38.19-.15,1.1.03,1.29.22.1.1.13.33.31.34.11,0,.24-.24.4-.21Z"/>
          <path class="cls-2" d="M49.35,13.39c1.82-.05,2.38.89,1.87,2.57-.4,1.33-1.22,1.88-2.1,2.82-1.31,1.41-2.61,2.84-3.9,4.27-.71.79-1.61,2.07-2.38,2.7-.23.19-.43.37-.46-.07.59-2.39,1.29-4.77,1.67-7.21.12-.77.13-1.74.29-2.47.39-1.75,3.47-2.58,5.01-2.62Z"/>
          <path class="cls-2" d="M41.45,31.13c.15.22.36.48.55.67.81.85,1.67,1.7,2.54,2.49,2.42,2.18,5.15,4.22,8.5,4.57v.16c-.24,0-.49,0-.73,0-2.1,0-4.23-.03-6.32.33-1.58.27-3.1.82-4.58,1.4l.55-.72c.09-.15.25-.52.06-.64-.23-.15-.48.11-.71.15-.83.16-.92-.71-.99-1.31-.18-1.63-.19-4.04.3-5.6.08-.24.52-1.4.68-1.49.05-.03.11-.05.16-.02Z"/>
          <path class="cls-2" d="M60.89,20.25l-.16,2.24c-.05,3.81.06,7.63.55,11.41.13,1.04.48,2.16,1.41,2.76.16.1.52.18.61.24.29.19-.7.41-.79.44-.04.02-.05.08-.09.1-1.98.77-4.12,1.31-6.24,1.47-.03-.15.03-.09.12-.12.21-.07.43-.07.64-.12,2.31-.56,4.18-1.46,3.95-4.22-.02-.22-.17-1.03-.5-.94-.38.1-.19.81-.2,1.11-.07,1.73-2.01,2.37-3.47,2.51.02-.35.24-.66.31-1.01.14-.75.13-1.55.23-2.31.42-3.1,1.14-6.27,1.89-9.26.32-1.27.67-2.88,1.29-4.02.1-.19.22-.31.45-.28Z"/>
          <path class="cls-2" d="M69.98,26.79s.06.23.1.31c.78,1.51,1.69,2.87,2.6,4.27,1.19,1.83,2.41,3.18,3.99,4.78.06.06.19.12.22.16.02.03-.07.47-.08.49,0,0-.16,0-.16,0-.02-.02-.08-.35-.15-.47-1.76-3.28-5.65-1.99-8.4-1.12-.06.02-.1.03-.16.02.15-.48-.11-.92-.11-1.38,0-.9.76-3.17,1.06-4.14s.64-1.93.94-2.9c.03-.03.14-.04.16-.02Z"/>
          <path class="cls-2" d="M60.08,14.89h-.11c-.02-.08.02-.11.08-.16l.03.16Z"/>
          <path class="cls-2" d="M5.35,18.51c-.19,0-.55.26-.64-.04s.06-.25.1-.33c.09-.17.19-.33.27-.5.21-.09.54-.29.64.04.13.43-.17.57-.37.83Z"/>
          <path class="cls-2" d="M2.86,23.22c.05.08.17.18.26.2.41.1,1.53.05,1.99.01.19-.02.32-.13.53-.11.25.02.53.2.76.27.07,0-.03-.26.08-.35.06-.05,1.07-.39,1.18-.39.16-.01.51.27.69.36s.49.18.7.22l-.03-.22c.71.23,1.85-.32,2.4,0,.59.35-.33.6-.65.63-.81.08-1.8-.13-2.56-.4-.46-.17-.66-.47-1.22-.19-.75.37,0,.53.19.68.26.2-.09.45-.3.45-.44,0-.57-.48-.82-.63-.67-.42-1.04-.07-1.67-.06-.15,0-.53-.04-.7-.06-.21-.03-.92-.12-.96-.34-.02-.14.06-.06.11-.08ZM10.11,23.65h1.03c.07-.21-.23-.22-.41-.22-.17,0-.36.02-.51.09-.09.04-.13,0-.11.13ZM6.76,24.03c.02-.18-.14-.29-.27-.38-.06.11.19.46.27.38Z"/>
        </g>
        <g id="Highlights">
          <path class="cls-1" d="M32.74,14.89c.15,0,.22,0,.16.18-.02.05-.35.23-.37.26-.15.26.39.72.31.1l.38.11v-.27c.14-.03.22.12.35.11.03,0,.03-.08.07-.11.07-.04.15-.03.23-.09.03-.02.58-.63.49-.32l-2.73,3.22c-.13.03-.09-.11-.07-.18.06-.15.27-.27.3-.35.03-.08.02-.19.05-.28.04-.11.13-.17.13-.28-.09-.1-.67.45-.59.08.02-.1.36-.26.46-.35s.1-.18.13-.22c.08-.1.11-.13.22-.22.08-.06.24-.04.27-.25.05-.26-.13-.27-.16-.43-.07-.37.19-.38.33-.59.04-.05.04-.12.05-.14Z"/>
          <path class="cls-1" d="M56.71,39.62c.24.4-.56.62-.83.64-1.36.1-.67-.83.21-.81.09,0,.58.12.62.17Z"/>
          <path class="cls-1" d="M52.5,40.15s-.02-.24,0-.26c.04-.05,1.02-.17,1.16-.17.1,0,.61.07.62.14.08.38-1.62.49-1.78.29Z"/>
          <path class="cls-1" d="M45.14,44.32s.04,0,.05,0c-.01.11,0,.12.11.11,0,.02,0,.04,0,.05,0,.24,0,.29-.22.43-.04,0-.07,0-.11,0-.06-.21-.47-.33-.37-.61.07-.21.41-.02.54.02Z"/>
          <path class="cls-1" d="M48.93,43.4c-.31-.5,1.2-.32,1.13.03-.05.23-.51.2-.69.16-.06-.01-.42-.17-.44-.19Z"/>
          <path class="cls-1" d="M42.54,3.15c.32.05.57.03.89.06.44.04.79.23,1.22.26.23.69-.41.34-.75.29-.72-.12-1.47-.15-2.21-.13-.16,0-.37.15-.46-.05.3-.09.67-.34,1.03-.38,0,0,.06.09.1.05.02-.03,0-.09,0-.1,0,0,.13,0,.16,0Z"/>
          <path class="cls-1" d="M14.75,13.93c.19-.03.4-.04.32.21-.02.05-.52.47-.61.53-.22.15-1.29.71-1.49.65-.12-.03-.16-.15-.13-.26.12-.38,1.52-1.06,1.91-1.12Z"/>
          <path class="cls-1" d="M18.28,12.3c.32.2-.46.62-.6.7-.2.12-1.21.64-1.37.43-.25-.35,1.01-.98,1.27-1.06.13-.04.61-.13.7-.07Z"/>
          <path class="cls-1" d="M20.22,11.06c1-.17.45.45-.02.73-.25.15-1.24.58-1.16-.01.03-.23.94-.68,1.18-.72Z"/>
          <path class="cls-1" d="M5.08,17.65c-.08.17-.18.33-.27.5-.04.07-.18.04-.1.33s.45.03.64.04c-.02.02-.02.12-.06.18-.32.42-1.37.8-1.06-.09.15-.44.45-.79.85-.96Z"/>
          <path class="cls-1" d="M37.94,1.25c.09.05.05.18.05.27-.01,0-.03.04-.05.05-.12.07-.13.12-.2.16-.08.05-.27,0-.23.16-.01,0-.04,0-.05,0l-.16.05c-.19.03-.41.11-.6.16v-.07c-.17-.06-.1-.2-.11-.36.28-.11,1.28-.39,1.35-.43Z"/>
          <path class="cls-1" d="M19.15,15.16c0,.12,0,.27-.05.38-.03.07-.29.25-.36.26-.11.01-.31-.19-.45-.21,0-.05-.01-.12,0-.16.08-.38.57-.25.87-.27Z"/>
          <path class="cls-1" d="M25.7,4.34c.11-.01.22,0,.33,0v.38c-.11.04-.22.17-.36.2-.13.03-.31-.01-.39.01,0-.1-.02-.21-.11-.27.2-.17.19-.29.54-.32Z"/>
          <path class="cls-1" d="M17.42,17.05c.02.08-.04.19-.05.27-.08.04-.15.14-.23.18-.39.16-.39-.09-.64-.23v-.11c.17-.18.5-.43.76-.3.02.01.16.18.16.19Z"/>
          <path class="cls-1" d="M21.91,13.05c.06.33-.52.45-.59.18s.41-.27.59-.18Z"/>
          <path class="cls-1" d="M30.85,3.2c.08.29-.8.71-.92.59-.09-.29.8-.71.92-.59Z"/>
        </g>
        <g id="Cherry_Red" data-name="Cherry Red">
          <path class="cls-3" d="M6.7,20.25s.03-.04.05-.05c-.02.02-.04.04-.05.05Z"/>
          <path class="cls-3" d="M25.7,4.34c.22-.25.72-.05,1-.05.45,0,.85-.33,1.27-.43.2.22-.65.61-.78.65-.38.13-.85.1-1.17.22v-.38c-.11,0-.22-.01-.32,0Z"/>
          <path class="cls-3" d="M31.55,2.82c.14.13-.65.71-.76.78-.35.22-.73.37-1.13.46.18-.85,1.14-1.15,1.89-1.24ZM30.85,3.2c-.12-.11-1.01.31-.92.59.12.12,1-.3.92-.59Z"/>
          <path class="cls-3" d="M17.42,17.05c.34.05.73-.17,1.08-.25.2-.04.54-.1.75-.12.08,0,.14-.06.12.07-.06.12-.55.25-.69.28-.49.11-.81.07-1.31.29.01-.08.07-.19.05-.27Z"/>
          <path class="cls-3" d="M19.15,15.16c.5-.03.94-.14,1.43-.16.12.15-.15.29-.28.31-.24.05-.52-.03-.74.01-.15.03-.29.21-.46.21.05-.11.06-.26.05-.38Z"/>
          <path class="cls-3" d="M4.27,15.65c.02.1-.02.16-.05.25-.06.18-.5,1.03-.62,1.11-.48.33.06-.53.12-.64.13-.24.22-.63.55-.72Z"/>
          <path class="cls-3" d="M37.94,1.25s-.02-.08.04-.11c.19-.08.46-.17.66-.16.09.08-.43.47-.49.51-.06.03-.14.02-.16.03,0-.09.03-.22-.05-.27Z"/>
          <path class="cls-3" d="M37.94,1.58c-.03.2-.27.26-.43.32-.04-.17.14-.11.23-.16.07-.05.08-.09.2-.16Z"/>
          <path class="cls-3" d="M37.45,1.9c-.07.03,0,.03-.16.05l.16-.05Z"/>
          <path class="cls-3" d="M42.38,3.15s.01.07,0,.1c-.04.04-.09-.05-.1-.05l.11-.05Z"/>
          <path class="cls-3" d="M16.5,17.27s-.08,0-.11,0c-.03-.04.09-.09.11-.11v.11Z"/>
          <path class="cls-3" d="M10.11,23.65c-.02-.14.02-.1.11-.13.16-.06.35-.09.51-.09.18,0,.48.01.41.22h-1.03Z"/>
          <path class="cls-3" d="M6.76,24.03c-.08.09-.33-.27-.27-.38.13.08.29.2.27.38Z"/>
          <path class="cls-3" d="M36.58,1.69c0,.16-.06.3.11.36v.07c-2.48.75-3.91,1.18-5.84,2.95-.07.07-.86.63-.76.73,1.15-.42,2.26-.93,3.45-1.23,1.33-.33,2.9-.64,4.26-.77.9-.09,2.7,0,3.44-.22.08.2.3.06.46.05.73-.02,1.48,0,2.21.13.33.05.97.41.75-.29-.43-.04-.79-.22-1.22-.26-.32-.03-.56-.01-.89-.06.66-.18,1.23,0,1.84.19.08.03.25.01.27.03.02.01,0,.08,0,.1.34.03.63.17.95.21.4.05,1.02-.1,1.35.11.8.52.17,2-.3,2.57-.38.47-1,.79-1.38,1.22-.34.38-.7,1.09-1.06,1.54-4.28,5.48-10.27,9.06-13.85,15.16-.63,1.07-1.16,2.2-1.63,3.35-.05.29.16.32.28.53.36.6.53,2.64.47,3.37-.09,1.33-.83,2.78-.49,4.12.18.72,1.36,2.21,2.15,2.24.3.01.33-.14.67.09.67.45.4,1.37.52,2.03.23,1.31,2.39,2.6,3.63,2.6.45,0,1.08-.39,1.48-.43.15-.01.22.11.36.1.19-.01,1.42-.61,1.71-.73.19-.08.8-.22.86-.38.05-.11-.07-.08-.13-.08-1.25-.08-1.68-.82-2.09-1.92-1.03-2.77-.8-6.53-.31-9.4.73-4.27,2.24-8.35,3.88-12.33-.11-.02-.18.03-.27.08-.41.27-1.07.85-1.47,1.19-2.24,1.91-4.6,4.56-5.55,7.39-.45,1.34-1.13,3.58-1,4.95.05.53.73,1.7.14,2.03-.45.26-.98-.35-1.25-.65-2.41-2.7-1.57-5.3-.04-8.15,1.82-3.39,4.53-6.54,7.37-9.08s7.59-5.71,11.41-4.42c2.42.81,3.94,2.78,3.19,5.38-.99,3.45-6.11,7.35-8.7,9.86-.65.63-1.84,1.7-1.84,2.65,0,1.13,1.65,2.65,2.43,3.41.64.62,1.33,1.2,1.98,1.81.07.02.11-.01.08-.08-.06-.14-.33-.37-.25-.57.06-.14.8-.58.97-.66s.59-.23.77-.21c.28.02.36.33.62.33.22-2.38,1.26-4.56,1.99-6.81,1.17-3.62,2.22-7.27,3.58-10.82.07-.46-.26-.27-.49-.29-.25-.03-.58-.29-.65-.54-.09-.29-.29-1.26-.25-1.53.11-.68,1.78-.61,2.29-.56.58.05,1.86.38,2.36.67s1.1,1.27.92,1.87c.1.02.11-.03.15-.09.43-.56.73-1.23,1.57-1.36,2.27-.36,1.4,3,1.31,4.23-.2,2.84-.18,5.7-.21,8.55-.03,2.41-.2,5.01.17,7.4,0,.05.05.49.16.36.41-5.8,1.93-11.54,3.87-16.99.54-1.52,1.16-3.17,1.87-4.62.19-.39.65-1.45,1.1-1.5.64-.07,1.81.64,1.63,1.41-.07.29-.65,1.12-.83,1.5-1.27,2.57-2.19,5.81-3.01,8.57-.66,2.23-1.37,4.61-1.9,6.87-.48,2.05-.64,4.46-1.22,6.41-.07.22-.19.52-.31.72-.07.11-.47.53-.39.61l3.25-1.24c.02-.17-.19-.18-.3-.27-.82-.71-.93-1.82-1.01-2.84.35-2.16.95-4.36,1.53-6.48.74-2.66,1.62-5.43,2.58-8.03.63-1.71,1.95-4.31,2.06-6.06.02-.39-.25-1.9.56-1.59.53.2,1.51,1.54,1.64,2.09s-.04,1.22-.16,1.76c-.48,1.99-1.46,3.88-2.14,5.82-.14.39-.28.79-.34,1.2.09.09.77-.39.9-.47,2.81-1.86,6.91-5.15,8.45-8.11.19-.36.65-1.58.95-1.75.42-.25.67.68.72.96.25,1.38.09,2.12-.52,3.35-2.11,4.23-6.98,6.38-10.53,9.17-.14.24-.06.6,0,.86.28,1.33,1.49,3.67,2.17,4.92.95,1.76,3.14,5.38,5.1,5.99,1.14.35,1.07-1.13,1.78-1.5.41-.21.63.3.61.66-.1,1.39-2.02,2.34-3.26,1.92-.31-.11-.54-.35-.85-.42.14.35.57.6.9.75,2.09.97,3.54-.27,4.47-2.07,1.29-2.52-.11-3.83-2.51-4.38-1.17-.27-3.2-.41-4.18-1.07-.66-.45-1.12-2.04-1.31-2.8-.33-1.34-.44-1.85.31-3.05.95-1.51,2.5-3.15,4.03-4.09,2.28-1.38,7.06-3.38,9.41-1.47,1.08.88,2.83,3.2,1.76,4.57-.81,1.04-2.14,1.74-2.97,2.88-.36.49-.22.65-.28,1.18-.07.71-.47,1.2-1.14.65-.49-.4-1.04-2.3-.97-2.92.12-1.02,1.57-2.46,2.32-3.14.33-.3,1.57-.97.45-1.1-1.26-.15-3.68.57-4.88,1.07-2.56,1.06-4.44,2.8-5.94,5.1l-.03.13c.02.06.11.09.17.1.76.24,1.7.28,2.49.48,3.62.93,6.08,4.29,5.17,8.06-.41,1.7-1.99,4.93-3.96,5.13-1.41.14-2.85-1.06-3.39-2.29-.11-.24-.14-.59-.22-.75-.04-.07-.06-.11-.15-.09,0,2.09-1.44,3.94-2.92,5.28-.67.61-2.57,1.8-2.74,2.62-.22,1.04,1.58,1.08,2.22,1.03.87-.07,1.66-.47,2.46-.76.09.09-.2.35-.27.4-1.28.97-3.77,1.99-5.08.6-1.97-2.09,2.22-4.51,3.38-5.87,1.6-1.87,1.56-5.21-1.56-4.92-.97.09-2.52.65-3.49.95-4.85,1.53-9.42,3.35-14.5,4.12-2.28.35-4.59.4-6.84.9-.55.12-1.09.3-1.64.42l-.09.07c-.03.11.66.8.79.89.23.16.75.24.78.27.07.06,0,.1-.07.12-.39.17-.93-.17-1.23-.42-.24-.2-.62-.77-.93-.72-.24.15-1.59.48-1.66.68-.1.28.15.76.43.85.39.13,1.1-.28,1.3.25-.13-.04-.47-.23-.54-.02-.09.29.31.4.37.61-.36-.06-.42-.4-.58-.49-.39-.23-.81-.07-1.23-.6-.15-.19-.13-.42-.37-.36-.42.1-1.73.86-2.19,1.12-3.34,1.85-6.78,4.88-10.88,3.1-3.34-1.44-4.63-4.9-5.1-8.27-.83-6.02.71-11.21,3.6-16.29.14-.24.24-.68.34-.98.07-.22.31-.82.09-.99-.21-.16-.67.09-.37-.57.25-.53,1-.9,1.41-1.3.34-.33.43-.87.63-1.27.34-.7,1.06-1.13,1.71-1.51-.03.04-.04.12-.13.22s-.44.25-.46.35c-.08.36.51-.18.59-.08,0,.11-.09.17-.13.28-.03.09-.02.2-.05.28-.03.07-.25.2-.3.35-.02.06-.06.21.07.18l2.73-3.22c.09-.31-.46.3-.49.32-.08.06-.16.05-.23.09-.04.02-.04.1-.07.11-.12.01-.21-.14-.35-.11v.27s-.38-.11-.38-.11c.07.62-.46.16-.31-.1.02-.04.35-.21.37-.26.06-.18-.02-.19-.16-.18-.01.02-.02.08-.05.14-.14.21-.4.22-.33.59.03.16.21.17.16.43-.04.2-.19.18-.27.25.3-.43.03-.39-.04-.63-.08-.28.24-.75.53-.77.41-.6,1.83-1.02,2.48-1.39.52-.29,1.95-1.35,2.33-1.78.72-.81,1.71-2.09.92-3.14-.91-1.21-3.25-1.34-4.63-1.27-3.27.15-7.67,2.14-10.47,3.82-.72.43-2.19,1.35-2.76,1.89-.13.12-.08.31-.19.41-.12.1-.53.13-.68.3l-2.09,1.75c-.02.38.45-.06.62-.05-.01.05,0,.11,0,.16-.45.2-.92.21-1.33.49-.43.29-.79.8-1.25,1.08-.13.43.32.22.54.11-.06.35-.6.29-.88.36-.45.11-2.03,1.72-2.53,2.13-.67.55-1.77,1.18-2.33,1.73-.09.09-.1.22-.15.26-.05.05-.48.12-.34.28.04.05.29.04.19.16-.01.01-.27.16-.3.16-.26.05-.51-.09-.74-.04-.12.02-.77.36-.79.46-.06.25.29.2.37.23.06.03.15.18.27.22l.03.22c-.2-.04-.51-.13-.7-.22s-.53-.37-.69-.36c-.11,0-1.12.35-1.18.39-.11.09-.01.35-.08.35-.24-.07-.52-.24-.76-.27-.22-.02-.34.09-.53.11-.46.04-1.58.09-1.99-.01-.08-.02-.21-.13-.26-.2.53-.23,1-.15,1.54-.22,1.48-.2,2.74-1.04,3.45-2.34.35-.64.7-1.41.64-2.15-.28-.06-.19.09-.3.21-.18.21-1.1,1.3-1.27,1.3-.33,0-.29.12-.59.31-1.37.86-3.23,2.04-4.86,1.22-1.11-.55-1.47-1.42-.67-2.46.24-.31.69-.59.89-.86.13-.18.14-.37.22-.53.03-.05.28-.38.29-.25.01.15-.17.33-.11.51.06,0,.11,0,.17-.02.28-.07.62-.4.79-.45.48-.14.6-.13,1.08-.38s.49-.25.99-.41c1.59-.53,2.42-1.86,3.79-2.7.16-.1,1.01-.58,1.13-.46.02.09-.03.11-.08.16-.23.22-.96.59-1.29.82-.22.15-1.16.82-1.23.99s.24-.01.3-.03c.63-.21,1.27-.38,1.9-.59,3.94-1.36,7.54-3.48,11.32-5.18.58-.62,1.04-1.37,1.78-1.85v-.48s2.11-2.49,2.11-2.49c.07-.12.22-.15.3-.22.09.06.11.17.11.27-.07.02-.64.55-.73.65-.48.52-.87,1.2-1.38,1.71-.04.17.4.08.21.37-.07.11-.2.12-.29.2-.26.22-1.29,1.17-1.33,1.43-.01.08,0,.09.08.08.47-.29.97-.52,1.47-.75.57-.26,1.77-.67,2.21-.98s1.15-1.71,1.6-2.19c.35-.37,1.32-.96,1.82-1.05.08-.01.15-.03.13.08-.23.2-.53.3-.78.47-.58.38-.95.64-1.32,1.27-.08.14-.39.7-.43.81-.02.06-.01.12-.01.18.57-.19,1.12-.5,1.7-.71.16-.09.52-.82.65-.8.04,0,.09.1.17.1.47-.29.88-.71,1.33-1.05,1.98-1.48,3.96-2.17,6.22-3.06ZM20.22,11.06c-.24.04-1.14.49-1.18.72-.09.6.9.17,1.16.01.47-.28,1.03-.91.02-.73ZM18.28,12.3c-.09-.06-.57.03-.7.07-.27.08-1.52.71-1.27,1.06.15.21,1.16-.31,1.37-.43.14-.08.92-.5.6-.7ZM49.35,13.39c-1.54.04-4.62.87-5.01,2.62-.16.72-.17,1.7-.29,2.47-.38,2.44-1.08,4.82-1.67,7.21.03.44.23.26.46.07.77-.64,1.68-1.92,2.38-2.7,1.29-1.43,2.59-2.86,3.9-4.27.88-.95,1.7-1.5,2.1-2.82.51-1.68-.05-2.62-1.87-2.57ZM14.75,13.93c-.39.06-1.79.74-1.91,1.12-.04.12,0,.23.13.26.2.05,1.27-.5,1.49-.65.09-.06.59-.48.61-.53.08-.25-.13-.23-.32-.21ZM59.97,14.94c-.15-.04-.29.22-.4.21-.18-.01-.21-.24-.31-.34-.19-.19-1.1-.37-1.29-.22-.18.14-.28,1.1-.35,1.38-1.55,5.99-3.82,11.95-5.66,17.88-.07.23-.26.31-.05.53.09.1.48.33.61.37.28.08.62-.06.72.26.1.34-.23.7-.51.84-.61.31-1.23,0-1.84-.14l.34.28c1.41.66,2.94,1.01,4.5,1.07.1,0,.49.03.52-.08.02-.08-.25-.23-.32-.32-1-1.28,0-6.68.29-8.37.59-3.46,1.3-7.33,2.54-10.61.36-.94.82-1.84,1.23-2.75ZM60.08,14.89l-.03-.16c-.06.05-.1.08-.08.16h.11ZM5.08,17.65c-.41.17-.7.52-.85.96-.31.88.74.51,1.06.09.04-.06.04-.16.06-.18.2-.26.5-.39.37-.83-.1-.33-.43-.12-.64-.04ZM60.89,20.25c-.23-.03-.35.09-.45.28-.62,1.14-.97,2.75-1.29,4.02-.75,2.99-1.46,6.16-1.89,9.26-.1.76-.09,1.56-.23,2.31-.07.36-.29.67-.31,1.01,1.46-.14,3.4-.78,3.47-2.51.01-.3-.18-1.01.2-1.11.33-.09.48.72.5.94.23,2.76-1.64,3.66-3.95,4.22-.21.05-.43.05-.64.12-.09.03-.14-.02-.12.12,2.12-.16,4.26-.7,6.24-1.47.04-.02.05-.08.09-.1.09-.04,1.08-.25.79-.44-.1-.07-.46-.14-.61-.24-.93-.6-1.27-1.73-1.41-2.76-.49-3.78-.6-7.6-.55-11.41l.16-2.24ZM69.98,26.79s-.13,0-.16.02c-.3.97-.65,1.93-.94,2.9s-1.07,3.24-1.06,4.14c0,.46.26.9.11,1.38.06.01.11,0,.16-.02,2.75-.87,6.64-2.16,8.4,1.12.07.13.13.46.15.47,0,0,.16,0,.16,0,.02-.02.1-.45.08-.49-.03-.04-.16-.1-.22-.16-1.58-1.6-2.8-2.95-3.99-4.78-.91-1.4-1.82-2.77-2.6-4.27-.04-.07-.09-.3-.1-.31ZM41.45,31.13s-.11,0-.16.02c-.16.09-.6,1.25-.68,1.49-.49,1.56-.47,3.97-.3,5.6.07.6.16,1.47.99,1.31.22-.04.47-.31.71-.15.18.12.03.49-.06.64l-.55.72c1.49-.58,3-1.13,4.58-1.4,2.09-.36,4.22-.33,6.32-.33.24,0,.49,0,.73,0v-.16c-3.35-.35-6.08-2.39-8.5-4.57-.87-.79-1.74-1.64-2.54-2.49-.18-.19-.39-.45-.55-.67ZM56.71,39.62c-.03-.06-.52-.17-.62-.17-.88-.01-1.58.91-.21.81.27-.02,1.07-.24.83-.64ZM52.5,40.15c.16.2,1.86.09,1.78-.29-.02-.07-.53-.14-.62-.14-.14,0-1.12.13-1.16.17-.02.02-.02.24,0,.26Z"/>
          <path class="cls-3" d="M81.41,42.43c0,.13-.18.22-.28.29-1.12.81-2.35,1.56-3.49,2.36-.1.07-.15.17-.14.29l3.96.93c.35.1.8.08,1.12.23.07.03.09,0,.07.12l-4.71.03c-.07.05-.05.07-.03.14.04.13.49.47.63.62.19.2.36.42.57.63.14.13.38.2.35.43l-2.84-1.13-.03-.11c.16-.04.97.17,1.03.11.21-.21-.58-.77-.33-.95.13-.09,1.39-.03,1.63-.1.06-.04.07-.1.05-.16-.04-.13-2.29-.51-2.33-.65-.03-.1.22-.37.3-.46.23-.27.53-.53.79-.78.11-.25.11-.36-.17-.28-.61.18-1.49.56-2.1.67-.07.01-.15.03-.21-.04-.06-.09.19-1.83.09-2.11h.16c.05.25.17,1.47.29,1.57.03.03.07.05.11.05l5.5-1.68Z"/>
          <path class="cls-3" d="M50.33,43.3c.17.27-.55.47-.73.48-.25,0-.72-.29-.98-.3-.23-.01-.54.31-.83.2l.65-.46c.35-.19.86-.31,1.25-.22.05.01.62.28.64.31ZM48.93,43.4s.38.17.44.19c.18.05.64.08.69-.16.08-.35-1.44-.53-1.13-.03Z"/>
          <path class="cls-3" d="M45.3,44.48c.18-.03.08.22.25.26.11.03.85-.16,1.07-.16.15,0,.56.07.71.11.08.02.1-.03.08.11-.31-.02-.64.17-.95.17-.39,0-.98-.03-1.38-.06.21-.14.22-.19.22-.43Z"/>
          <path class="cls-3" d="M52.12,42.54c.09.08-.39.4-.45.44-.14.02-.92.4-.96.37-.07-.06.08-.15.12-.17.18-.12,1.14-.77,1.28-.64Z"/>
          <path class="cls-3" d="M45.19,44.32s.1-.01.11,0c.01.01,0,.08,0,.11-.12.01-.12,0-.11-.11Z"/>
        </g>
      </g>
    </g>
  </g>
</svg>